<?xml version="1.0" standalone="no"?>
<!DOCTYPE svg PUBLIC "-//W3C//DTD SVG 20010904//EN"
 "http://www.w3.org/TR/2001/REC-SVG-20010904/DTD/svg10.dtd">
<svg version="1.0" xmlns="http://www.w3.org/2000/svg"
 width="188.000000pt" height="161.000000pt" viewBox="0 0 188.000000 161.000000"
 preserveAspectRatio="xMidYMid meet">

<g transform="translate(0.000000,161.000000) scale(0.100000,-0.100000)"
fill="#000000" stroke="none">
<path d="M1477 1423 c-21 -3 -27 -9 -23 -20 3 -8 6 -23 6 -34 0 -12 7 -19 20
-19 11 0 20 -7 20 -15 0 -14 3 -13 25 2 32 24 38 41 20 59 -8 9 -15 20 -15 25
0 9 -3 9 -53 2z"/>
<path d="M1194 1177 c-83 -84 -180 -186 -217 -227 l-67 -75 -107 106 c-144
141 -134 134 -180 111 -43 -23 -68 -47 -77 -79 -8 -26 44 -91 223 -274 114
-117 130 -131 152 -124 51 16 106 77 254 281 47 65 108 145 136 176 72 80 138
171 139 187 0 8 -8 23 -17 33 -14 15 -15 21 -4 27 8 5 -6 9 -35 9 l-49 1 -151
-152z"/>
<path d="M1549 1199 c-58 -70 -83 -107 -81 -122 2 -12 4 -69 5 -127 1 -93 -2
-113 -26 -175 -52 -133 -141 -238 -255 -302 -112 -63 -192 -74 -192 -27 0 12
-4 12 -26 -2 -29 -19 -154 -163 -154 -177 0 -5 41 -50 90 -100 l90 -92 23 28
c16 20 44 34 112 53 115 33 205 80 291 153 127 107 215 227 267 365 29 76 31
91 35 247 4 164 4 166 -28 259 -30 91 -44 120 -60 120 -4 0 -45 -45 -91 -101z"/>
<path d="M174 878 c-57 -61 -104 -117 -104 -126 0 -4 14 -15 30 -24 17 -9 30
-24 30 -32 0 -30 90 -188 145 -256 114 -139 211 -210 363 -264 79 -28 122 -33
122 -14 0 6 -18 35 -40 64 l-40 54 45 61 c51 69 56 89 21 89 -30 0 -125 49
-187 97 -53 40 -105 104 -143 177 -24 45 -25 51 -11 66 14 16 11 20 -37 56
-69 51 -135 94 -146 94 -4 0 -26 -19 -48 -42z"/>
</g>
</svg>
